Coordinates
version=1
nRows=8
nColumns=34
inDegrees=yes

Units are S.I. units (second, meters, Newtons, ...)
If the header above contains a line with 'inDegrees', this indicates whether rotational values are in degrees (yes) or radians (no).

endheader
time	pelvis_tilt	pelvis_list	pelvis_rotation	pelvis_tx	pelvis_ty	pelvis_tz	hip_flexion_r	hip_adduction_r	hip_rotation_r	knee_angle_r	ankle_angle_r	subtalar_angle_r	mtp_angle_r	hip_flexion_l	hip_adduction_l	hip_rotation_l	knee_angle_l	ankle_angle_l	subtalar_angle_l	mtp_angle_l	lumbar_extension	lumbar_bending	lumbar_rotation	arm_flex_r	arm_add_r	arm_rot_r	elbow_flex_r	pro_sup_r	arm_flex_l	arm_add_l	arm_rot_l	elbow_flex_l	pro_sup_l
      4.45000000	    -23.43502712	     -3.97647858	     -0.72375387	      0.28545890	      1.22594337	     -0.08583501	     50.18459579	     -0.94100031	     -2.38669728	     72.41917043	    -11.01473290	    -13.96570803	      0.00000000	     18.18459940	     -4.57083117	     -2.75673955	     33.15168521	      9.57919309	    -10.22566376	      0.00000000	     -1.97924491	      4.91832994	     -1.42571452	     65.89835757	    -14.39539158	     10.53005229	     90.83572614	     81.02438654	     77.14861139	     -4.37547706	     16.04194020	     74.25637513	     70.54069559
      4.46666670	    -22.83141323	     -4.64877130	     -0.55101025	      0.30401976	      1.23382295	     -0.08418197	     50.04123642	     -0.78880599	     -3.13390272	     69.24628012	    -12.04381237	    -15.20941973	      0.00000000	     17.20201037	     -5.41147119	     -2.21727803	     32.66048908	      9.24062492	    -11.54560449	      0.00000000	     -1.99292996	      5.92267840	     -1.81399916	     66.13091635	    -15.56780217	     10.80040314	     95.20150978	     81.27433814	     77.47767054	     -5.24688511	     16.37108466	     75.30326386	     70.75673707
      4.48333330	    -22.50277379	     -4.28767371	     -0.35946638	      0.32465780	      1.24069469	     -0.08153779	     50.04404806	     -1.38531535	     -2.92297917	     65.96324956	    -13.13210239	    -16.17690902	      0.00000000	     18.19959304	     -5.33795066	     -2.49043046	     34.50782151	      6.74531997	    -15.82676200	      0.00000000	     -2.00982764	      5.47841972	     -2.38319644	     65.94075724	    -17.11431680	     11.00312898	     99.41734835	     81.72712030	     77.69217268	     -6.48226395	     16.81607017	     76.27299951	     71.01585704
      4.50000000	    -22.24189149	     -3.90561892	     -0.23080134	      0.34821210	      1.25088943	     -0.07803395	     49.53258295	     -1.70911076	     -2.65721487	     62.07696528	    -13.28408156	    -15.59078035	      0.00000000	     19.99082422	     -5.23555300	     -2.54833353	     38.68977910	      3.92237560	    -19.57164343	      0.00000000	     -1.99549220	      4.97320972	     -2.86428892	     64.93000528	    -18.46347974	     10.72587722	    103.28115247	     82.30304449	     77.19396192	     -8.00870316	     17.19638968	     77.30743606	     71.26331881
      4.51666670	    -21.78457367	     -3.55326459	     -0.26345063	      0.37196433	      1.26010840	     -0.07510482	     48.57046637	     -1.92444322	     -2.46548155	     57.99927673	    -15.44183229	    -15.72431902	      0.00000000	     22.31695295	     -5.14193326	     -2.65488608	     44.68036991	     -2.44597292	    -22.94466370	      0.00000000	     -2.30140384	      4.50340065	     -3.02797286	     63.02503721	    -20.29514365	     10.54481700	    106.47143394	     82.97214280	     76.08171864	     -9.68255867	     17.41448361	     78.04116948	     71.46250376
      4.53333330	    -21.79688632	     -2.83165348	     -0.01204329	      0.38987847	      1.26201070	     -0.07296779	     48.23374321	     -2.63708507	     -1.95125061	     53.54890536	    -16.59035669	    -15.07429683	      0.00000000	     25.73173822	     -4.41934114	     -2.48878255	     48.97599591	     -3.18768515	    -25.47146106	      0.00000000	     -2.32146592	      3.49184015	     -3.19821735	     61.09947435	    -22.82067537	      9.90379844	    109.03616200	     83.77829435	     75.22789859	    -11.50032459	     18.13649742	     78.32636203	     71.67423434
      4.55000000	    -21.74871216	     -2.48024711	      0.08455674	      0.40949717	      1.26056570	     -0.07223374	     47.42868284	     -3.09025124	     -1.85953903	     48.93233059	    -18.09060584	    -13.57412114	      0.00000000	     28.09322695	     -3.80090477	     -2.13843011	     51.02896356	     -2.60701853	    -24.43830081	      0.00000000	     -2.47638791	      3.14054164	     -3.30734765	     59.73494359	    -25.75381840	     10.08389390	    109.86647606	     84.22111618	     74.35209094	    -13.57297130	     18.52063458	     77.71389820	     71.74297702
      4.56666670	    -21.94863190	     -2.08094637	     -0.19215382	      0.42435955	      1.25851009	     -0.06935981	     47.57221665	     -3.29189281	     -1.68665508	     45.06532144	    -19.38600830	    -11.94086217	      0.00000000	     30.94382797	     -3.28618802	     -2.32697832	     52.35289096	     -3.62178403	    -22.80003023	      0.00000000	     -2.88247084	      2.61490613	     -2.96555493	     58.68508630	    -29.19871908	     10.93730823	    109.55417311	     84.65397422	     73.67856502	    -16.14775883	     19.19867702	     75.86541142	     71.74990137
